<?xml version="1.0" standalone="no"?>
<!DOCTYPE svg PUBLIC "-//W3C//DTD SVG 20010904//EN"
 "http://www.w3.org/TR/2001/REC-SVG-20010904/DTD/svg10.dtd">
<svg version="1.0" xmlns="http://www.w3.org/2000/svg"
 width="1622.000000pt" height="2107.000000pt" viewBox="0 0 1622.000000 2107.000000"
 preserveAspectRatio="xMidYMid meet">
<metadata>
Created by potrace 1.16, written by Peter Selinger 2001-2019
</metadata>
<g transform="translate(0.000000,2107.000000) scale(0.100000,-0.100000)"
fill="#000000" stroke="none">
<path d="M7765 20112 c-627 -419 -1156 -846 -1650 -1333 l-220 -216 -604 538
c-674 602 -670 599 -810 607 -89 5 -170 -14 -240 -56 -28 -18 -201 -203 -499
-537 -250 -280 -470 -530 -488 -555 -104 -141 -94 -342 22 -482 27 -31 1177
-1065 1262 -1133 1 -1 -46 -78 -106 -171 -570 -885 -1017 -1871 -1308 -2884
-31 -107 -58 -197 -60 -199 -2 -2 -9 1 -16 7 -48 40 -127 53 -947 157 -456 58
-849 105 -874 105 -147 0 -303 -111 -355 -252 -27 -74 -196 -1408 -189 -1494
11 -139 114 -274 247 -325 36 -14 293 -50 878 -124 455 -58 842 -105 860 -105
17 0 32 -3 32 -7 0 -5 -7 -92 -15 -194 -79 -1015 -13 -2142 189 -3179 8 -41
11 -78 8 -82 -4 -3 -331 -141 -727 -306 -396 -164 -743 -311 -771 -325 -147
-74 -236 -257 -203 -416 10 -48 498 -1241 545 -1333 29 -57 66 -98 122 -138
75 -54 146 -73 252 -68 85 5 86 6 739 277 359 150 657 269 661 264 4 -4 22
-44 40 -88 382 -940 971 -1915 1622 -2690 73 -86 142 -169 152 -182 l19 -25
-184 -186 c-101 -103 -361 -365 -576 -582 -358 -362 -395 -401 -424 -464 -55
-117 -55 -239 0 -351 27 -55 93 -124 535 -563 278 -275 524 -512 549 -526 134
-79 293 -75 423 10 28 19 309 295 624 614 314 319 576 580 581 580 4 0 36 -24
71 -52 146 -122 561 -425 793 -580 260 -173 640 -408 661 -408 7 0 54 72 105
160 50 88 93 160 94 160 1 0 256 -144 565 -321 310 -176 566 -317 570 -312 4
4 360 627 790 1383 430 756 793 1394 807 1416 l24 42 -556 316 c-305 175 -555
320 -555 324 1 14 526 917 534 916 4 -1 242 -135 528 -299 286 -163 524 -293
528 -288 4 4 360 627 790 1383 430 756 793 1394 807 1417 l24 41 -521 297
c-286 163 -519 299 -517 303 3 4 41 70 86 148 74 129 93 174 74 174 -17 0
-236 146 -346 232 -961 742 -1394 2005 -1092 3183 101 393 299 801 541 1116
201 260 527 562 761 702 41 24 53 37 50 52 -5 28 -4409 7095 -4422 7095 -5 0
-136 -85 -290 -188z m894 -1773 c662 -1072 850 -1383 840 -1390 -57 -38 -131
-81 -134 -78 -2 2 -387 624 -855 1383 -648 1048 -849 1381 -839 1387 8 4 39
24 69 43 30 20 57 36 60 36 3 0 389 -622 859 -1381z m2163 -3515 c384 -621
770 -1245 857 -1386 l159 -257 -74 -46 c-61 -39 -77 -44 -94 -35 -21 11 -29
26 -7 15 6 -4 3 1 -7 9 -11 9 -16 16 -10 16 5 0 0 7 -10 15 -11 8 -16 15 -11
15 5 0 0 7 -11 16 -10 8 -12 13 -4 9 8 -4 6 1 -4 9 -11 9 -16 16 -10 16 5 0 1
5 -9 11 -9 6 -15 14 -12 20 4 5 1 9 -5 9 -6 0 -9 4 -5 9 3 6 -3 14 -12 20 -10
6 -14 11 -9 11 6 0 1 7 -10 16 -10 8 -12 13 -4 9 10 -4 9 -2 -2 8 -10 8 -15
17 -11 20 3 4 -2 9 -11 13 -9 3 -13 10 -10 15 3 5 0 9 -6 9 -6 0 -9 4 -5 9 3
6 -3 14 -12 20 -10 6 -14 11 -9 11 6 0 1 7 -10 16 -10 8 -12 13 -4 9 8 -4 6 1
-4 9 -11 9 -16 16 -10 16 5 0 0 7 -10 15 -11 8 -16 15 -11 15 5 0 0 7 -11 16
-10 8 -12 13 -4 9 10 -4 9 -2 -2 8 -10 8 -15 17 -11 20 3 4 -2 9 -11 13 -9 3
-13 10 -10 15 3 5 0 9 -6 9 -6 0 -9 4 -5 9 3 6 -3 14 -12 20 -10 6 -14 11 -9
11 6 0 1 7 -10 16 -10 8 -12 13 -4 9 8 -4 6 1 -4 9 -11 9 -16 16 -10 16 5 0 0
7 -10 15 -11 8 -16 15 -11 15 5 0 0 7 -11 16 -10 8 -12 13 -4 9 10 -4 9 -2 -2
8 -10 8 -15 17 -11 20 3 4 -2 9 -11 13 -9 3 -13 10 -10 15 3 5 0 9 -6 9 -6 0
-9 4 -5 9 3 6 -3 14 -12 20 -10 6 -14 11 -9 11 6 0 1 7 -10 16 -10 8 -12 13
-4 9 10 -4 9 -2 -2 8 -10 8 -15 17 -11 20 3 4 -2 9 -11 13 -9 3 -13 10 -10 15
3 5 0 9 -6 9 -6 0 -8 5 -5 10 3 6 -1 13 -9 16 -9 3 -14 10 -11 14 3 4 -2 11
-11 14 -8 3 -12 10 -9 16 3 5 1 10 -5 10 -6 0 -9 4 -5 9 3 6 -3 14 -12 20 -10
6 -14 11 -9 11 6 0 1 7 -10 16 -10 8 -12 13 -4 9 10 -4 9 -2 -2 8 -10 8 -15
17 -11 20 3 4 -2 9 -11 13 -9 3 -13 10 -10 15 3 5 0 9 -6 9 -6 0 -9 4 -5 9 3
6 -3 14 -12 20 -10 6 -14 11 -9 11 6 0 1 7 -10 16 -10 8 -12 13 -4 9 8 -4 6 1
-4 9 -11 9 -16 16 -10 16 5 0 0 7 -10 15 -11 8 -16 15 -11 15 5 0 0 7 -11 16
-10 8 -12 13 -4 9 10 -4 9 -2 -2 8 -10 8 -15 17 -11 20 3 4 -2 9 -11 13 -9 3
-13 10 -10 15 3 5 0 9 -6 9 -6 0 -9 4 -5 9 3 6 -3 14 -12 20 -10 6 -14 11 -9
11 6 0 1 7 -10 16 -10 8 -12 13 -4 9 10 -4 9 -2 -2 8 -10 8 -15 17 -11 20 3 4
-2 9 -11 13 -9 3 -13 10 -10 15 3 5 0 9 -6 9 -6 0 -8 5 -5 10 3 6 -1 13 -9 16
-9 3 -13 10 -10 15 3 5 -2 12 -10 15 -9 3 -13 10 -10 15 3 5 0 9 -6 9 -6 0 -9
4 -5 9 3 6 -3 14 -12 20 -10 6 -14 11 -9 11 6 0 1 7 -10 16 -10 8 -12 13 -4 9
10 -4 9 -2 -2 8 -10 8 -15 17 -11 20 3 4 -2 9 -11 13 -9 3 -13 10 -10 15 3 5
0 9 -6 9 -6 0 -8 5 -5 10 3 6 -1 13 -9 16 -9 3 -14 10 -11 14 3 4 -2 11 -11
14 -8 3 -12 10 -9 16 3 5 1 10 -5 10 -6 0 -9 4 -5 9 3 6 -3 14 -12 20 -10 6
-14 11 -9 11 6 0 1 7 -10 16 -10 8 -12 13 -4 9 10 -4 9 -2 -2 8 -10 8 -15 17
-11 20 3 4 -2 9 -11 13 -9 3 -13 10 -10 15 3 5 0 9 -6 9 -6 0 -9 4 -5 9 3 6
-3 14 -12 20 -10 6 -14 11 -9 11 6 0 1 7 -10 16 -10 8 -12 13 -4 9 10 -4 9 -2
-2 8 -10 8 -15 17 -11 20 3 4 -2 9 -11 13 -9 3 -13 10 -10 15 3 5 0 9 -6 9 -6
0 -8 5 -5 10 3 6 -1 13 -9 16 -9 3 -13 10 -10 15 3 5 -2 12 -10 15 -9 3 -13
10 -10 15 3 5 0 9 -6 9 -6 0 -9 4 -5 9 3 6 -3 14 -12 20 -10 6 -14 11 -9 11 6
0 1 7 -10 16 -10 8 -12 13 -4 9 10 -4 9 -2 -2 8 -10 8 -15 17 -11 20 3 4 -2 9
-11 13 -9 3 -13 10 -10 15 3 5 0 9 -6 9 -6 0 -8 5 -5 10 3 6 -1 13 -9 16 -9 3
-13 10 -10 15 3 5 -2 12 -10 15 -9 3 -13 10 -10 15 3 5 0 9 -6 9 -6 0 -9 4 -5
9 3 6 -3 14 -12 20 -10 6 -14 11 -9 11 6 0 1 7 -10 16 -10 8 -12 13 -4 9 10
-4 9 -2 -2 8 -10 8 -15 17 -11 20 3 4 -2 9 -11 13 -9 3 -13 10 -10 15 3 5 0 9
-6 9 -6 0 -8 5 -5 10 3 6 -1 13 -9 16 -9 3 -14 10 -11 14 3 4 -2 11 -11 14 -8
3 -12 10 -9 16 3 5 1 10 -5 10 -6 0 -8 5 -5 10 3 6 -1 13 -9 16 -9 3 -13 10
-10 15 3 5 0 9 -6 9 -6 0 -8 5 -5 10 3 6 -1 13 -9 16 -9 3 -13 10 -10 15 3 5
-2 12 -10 15 -9 3 -13 10 -10 15 3 5 0 9 -6 9 -6 0 -9 4 -5 9 3 6 -3 14 -12
20 -10 6 -14 11 -9 11 6 0 1 7 -10 16 -10 8 -12 13 -4 9 8 -4 6 1 -4 9 -11 9
-16 16 -10 16 5 0 2 6 -6 13 -8 7 -16 18 -18 26 -2 8 -12 27 -22 42 l-20 26
73 46 c39 25 76 44 81 43 5 -1 324 -510 708 -1132z"/>
</g>
</svg>
