<?xml version="1.0" standalone="no"?>
<!DOCTYPE svg PUBLIC "-//W3C//DTD SVG 20010904//EN"
 "http://www.w3.org/TR/2001/REC-SVG-20010904/DTD/svg10.dtd">
<svg version="1.0" xmlns="http://www.w3.org/2000/svg"
 width="1622.000000pt" height="2107.000000pt" viewBox="0 0 1622.000000 2107.000000"
 preserveAspectRatio="xMidYMid meet">
<metadata>
Created by potrace 1.16, written by Peter Selinger 2001-2019
</metadata>
<g transform="translate(0.000000,2107.000000) scale(0.100000,-0.100000)"
fill="#000000" stroke="none">
<path d="M7765 20112 c-466 -311 -810 -574 -1221 -933 -333 -292 -905 -866
-1228 -1235 -998 -1137 -1750 -2527 -2192 -4054 -327 -1128 -492 -2356 -470
-3505 27 -1480 319 -2931 853 -4240 474 -1164 1128 -2208 1937 -3092 294 -322
912 -920 1221 -1183 337 -287 703 -564 1060 -802 260 -173 640 -408 661 -408
7 0 54 72 105 160 50 88 93 160 94 160 1 0 256 -144 565 -321 310 -176 566
-317 570 -312 4 4 360 627 790 1383 430 756 793 1394 807 1416 l24 42 -556
316 c-305 175 -555 320 -555 324 1 14 526 917 534 916 4 -1 242 -135 528 -299
286 -163 524 -293 528 -288 4 4 360 627 790 1383 430 756 793 1394 807 1417
l24 41 -521 297 c-286 163 -519 299 -517 303 3 4 41 70 86 148 74 129 93 174
74 174 -17 0 -236 146 -346 232 -961 742 -1394 2005 -1092 3183 101 393 299
801 541 1116 201 260 527 562 761 702 41 24 53 37 50 52 -5 28 -4409 7095
-4422 7095 -5 0 -136 -85 -290 -188z m891 -1756 c465 -752 847 -1373 850
-1380 4 -11 -121 -91 -143 -91 -11 0 -1700 2720 -1706 2747 -2 12 132 100 145
96 4 -2 388 -619 854 -1372z m2314 -3777 c471 -761 855 -1390 852 -1396 -2 -7
-8 -11 -12 -8 -5 3 -13 -3 -19 -12 -6 -10 -11 -14 -11 -9 0 6 -7 1 -16 -10 -8
-10 -13 -12 -9 -4 4 8 -1 6 -9 -4 -9 -11 -16 -16 -16 -11 0 5 -7 0 -16 -11 -8
-10 -13 -12 -9 -4 5 11 3 11 -7 -1 -11 -13 -17 -14 -29 -5 -9 6 -17 16 -18 21
-5 20 -35 65 -44 65 -4 0 -6 4 -3 8 3 5 -2 18 -12 28 -9 11 -26 36 -36 57 -11
20 -24 37 -29 37 -6 0 -8 3 -4 6 6 6 -59 114 -77 126 -6 4 -7 8 -3 8 9 0 -31
61 -48 72 -5 4 -7 8 -3 8 9 0 -61 112 -76 122 -6 4 -7 8 -3 8 9 0 -31 61 -48
72 -5 4 -7 8 -3 8 9 0 -61 112 -76 122 -6 4 -8 8 -4 8 7 0 -57 108 -71 120 -3
3 -15 22 -25 43 -11 20 -24 37 -29 37 -6 0 -8 3 -4 6 6 6 -59 114 -77 126 -6
4 -7 8 -3 8 9 0 -31 61 -48 72 -5 4 -7 8 -3 8 9 0 -61 112 -76 122 -6 4 -8 8
-4 8 9 0 -111 192 -126 202 -6 4 -8 8 -4 8 7 0 -57 108 -71 120 -3 3 -15 22
-25 43 -11 20 -24 37 -29 37 -6 0 -8 3 -4 6 6 6 -59 114 -77 126 -6 4 -8 8 -4
8 9 0 -111 192 -126 202 -6 4 -8 8 -4 8 9 0 -111 192 -126 202 -6 4 -8 8 -4 8
9 0 -62 114 -74 118 -4 2 -8 9 -8 14 0 14 -109 191 -124 200 -6 4 -8 8 -4 8 5
0 -12 31 -36 69 l-45 69 72 45 c40 25 76 44 81 43 5 -1 395 -625 866 -1387z"/>
</g>
</svg>
