<?xml version="1.0" standalone="no"?>
<!DOCTYPE svg PUBLIC "-//W3C//DTD SVG 20010904//EN"
 "http://www.w3.org/TR/2001/REC-SVG-20010904/DTD/svg10.dtd">
<svg version="1.0" xmlns="http://www.w3.org/2000/svg"
 width="1622.000000pt" height="2107.000000pt" viewBox="0 0 1622.000000 2107.000000"
 preserveAspectRatio="xMidYMid meet">
<metadata>
Created by potrace 1.16, written by Peter Selinger 2001-2019
</metadata>
<g transform="translate(0.000000,2107.000000) scale(0.100000,-0.100000)"
fill="#000000" stroke="none">
<path d="M7765 20112 c-465 -310 -809 -573 -1221 -933 -232 -203 -662 -623
-875 -855 l-139 -152 69 -143 c454 -951 702 -1652 776 -2189 24 -169 24 -442
1 -570 -56 -313 -205 -555 -461 -754 -436 -339 -1234 -573 -2490 -731 -159
-20 -299 -38 -310 -40 -17 -4 -28 -32 -68 -182 -505 -1888 -527 -3853 -63
-5728 79 -318 190 -703 209 -721 7 -6 138 -24 292 -38 804 -78 1433 -194 1885
-345 624 -210 958 -486 1100 -909 191 -572 -12 -1475 -665 -2945 l-56 -128 59
-67 c139 -156 603 -596 852 -808 337 -287 705 -566 1067 -808 289 -192 646
-410 663 -404 6 2 53 75 104 163 51 88 97 159 102 158 5 -1 195 -108 423 -237
228 -130 415 -235 416 -234 13 16 1605 2821 1605 2828 0 5 -172 107 -382 226
-211 120 -395 225 -410 234 l-28 17 271 469 c149 258 273 472 277 475 4 4 171
-87 372 -202 201 -114 370 -208 375 -208 9 0 1597 2778 1602 2803 2 6 -159
103 -357 215 -198 111 -360 208 -360 214 0 5 38 76 85 157 78 135 97 180 78
180 -17 0 -236 146 -346 232 -961 742 -1394 2005 -1092 3183 101 393 299 801
541 1116 201 260 527 562 761 702 41 24 53 37 50 52 -5 28 -4409 7095 -4422
7095 -5 0 -136 -85 -290 -188z m872 -1737 c456 -737 839 -1357 851 -1377 l23
-37 -71 -46 c-40 -25 -76 -45 -81 -43 -9 3 -1698 2732 -1702 2750 -2 11 133
100 145 96 4 -2 380 -606 835 -1343z m2215 -3616 c406 -656 792 -1281 858
-1386 l118 -192 -75 -46 c-42 -26 -79 -43 -84 -38 -15 15 -1702 2748 -1706
2763 -3 15 122 101 141 96 5 -1 342 -540 748 -1197z"/>
</g>
</svg>
