<?xml version="1.0" standalone="no"?>
<!DOCTYPE svg PUBLIC "-//W3C//DTD SVG 20010904//EN"
 "http://www.w3.org/TR/2001/REC-SVG-20010904/DTD/svg10.dtd">
<svg version="1.0" xmlns="http://www.w3.org/2000/svg"
 width="1622.000000pt" height="2107.000000pt" viewBox="0 0 1622.000000 2107.000000"
 preserveAspectRatio="xMidYMid meet">
<metadata>
Created by potrace 1.16, written by Peter Selinger 2001-2019
</metadata>
<g transform="translate(0.000000,2107.000000) scale(0.100000,-0.100000)"
fill="#000000" stroke="none">
<path d="M5835 20907 c-22 -8 -51 -19 -65 -27 -49 -25 -1116 -795 -1161 -837
-117 -109 -156 -300 -91 -444 15 -35 788 -1123 966 -1359 42 -57 119 -213 281
-570 353 -779 545 -1356 610 -1830 24 -169 24 -442 1 -570 -44 -246 -144 -446
-305 -614 -143 -147 -290 -249 -531 -365 -449 -215 -1124 -378 -2104 -506
l-268 -35 -932 0 -932 0 -52 -26 c-57 -28 -96 -69 -123 -129 -18 -38 -19 -89
-19 -896 l0 -855 26 -52 c28 -57 69 -96 129 -123 37 -17 84 -19 738 -19 383 0
697 -1 697 -2 0 -2 -7 -87 -15 -189 -52 -658 -43 -1371 25 -2041 11 -109 20
-200 20 -203 0 -3 -321 -5 -712 -5 -668 0 -716 -2 -753 -19 -60 -27 -101 -66
-129 -123 l-26 -52 0 -856 0 -856 26 -52 c28 -57 69 -96 129 -123 38 -18 91
-19 963 -19 l922 0 303 -30 c862 -87 1460 -196 1917 -349 624 -210 958 -486
1100 -909 191 -572 -12 -1475 -665 -2945 -55 -125 -67 -142 -505 -732 -247
-331 -458 -621 -469 -644 -12 -22 -26 -72 -33 -110 -21 -121 16 -241 100 -330
66 -71 1139 -864 1199 -887 36 -14 74 -19 153 -19 118 1 169 18 246 80 24 20
214 267 439 570 l398 535 61 -45 c258 -189 970 -642 996 -633 6 2 53 75 104
163 51 88 97 159 102 158 5 -1 195 -108 423 -237 228 -130 415 -235 416 -234
13 16 1605 2821 1605 2828 0 5 -172 107 -382 226 -211 120 -395 225 -410 234
l-28 17 271 469 c149 258 273 472 277 475 4 4 171 -87 372 -202 201 -114 370
-208 375 -208 9 0 1597 2778 1602 2803 2 6 -159 103 -357 215 -198 111 -360
208 -360 214 0 5 38 76 85 157 78 135 97 180 78 180 -17 0 -236 146 -346 232
-961 742 -1394 2005 -1092 3183 101 393 299 801 541 1116 201 260 527 562 761
702 41 24 53 37 50 52 -4 26 -4409 7095 -4420 7095 -27 0 -663 -436 -886 -607
-46 -36 -87 -61 -91 -56 -4 4 -186 258 -405 563 -218 305 -420 578 -448 607
-72 75 -147 106 -262 110 -55 2 -105 -2 -130 -10z m2814 -2568 c664 -1075 851
-1383 840 -1390 -57 -38 -131 -81 -134 -78 -2 2 -387 624 -855 1383 -648 1048
-849 1381 -839 1387 8 4 39 24 69 43 30 20 57 36 60 36 3 0 390 -622 859
-1381z m2163 -3515 c384 -621 770 -1245 857 -1386 l159 -257 -75 -47 c-42 -26
-78 -43 -83 -38 -5 5 -383 614 -840 1354 -457 740 -842 1361 -855 1381 l-24
37 72 45 c40 25 76 44 81 43 5 -1 324 -510 708 -1132z"/>
</g>
</svg>
